# AST/ASF file generated using VICON BodyLanguage
# -----------------------------------------------
:version 1.10
:name VICON
:units
  mass 1.0
  length 0.45
  angle deg
:documentation
   .ast/.asf automatically generated from VICON data using
   VICON BodyBuilder and BodyLanguage model FoxedUp or BRILLIANT.MOD
:root
   order TX TY TZ RX RY RZ
   axis XYZ
   position 0 0 0  
   orientation 0 0 0 
:bonedata
  begin
     id 1 
     name lhipjoint
     direction 0.577973 -0.728611 0.367523 
     length 2.48544 
     axis 0 0 0  XYZ
  end
  begin
     id 2 
     name lfemur
     direction 0.34202 -0.939693 0  
     length 7.1921  
     axis 0 0 20  XYZ
    dof rx ry rz
    limits (-160.0 20.0)
           (-70.0 70.0)
           (-60.0 70.0)
  end
  begin
     id 3 
     name ltibia
     direction 0.34202 -0.939693 0   
     length 7.71059   
     axis 0 0 20   XYZ
    dof rx
    limits (-10.0 170.0)
  end
  begin
     id 4 
     name lfoot
     direction 0.089538 -0.246004 0.965124   
     length 2.19909   
     axis -90 7.62852e-016 20   XYZ
    dof rx rz
    limits (-45.0 90.0)
           (-70.0 20.0)
  end
  begin
     id 5 
     name ltoes
     direction 1.53544e-011 -4.21829e-011 1   
     length 1.10116   
     axis -90 7.62852e-016 20   XYZ
    dof rx
    limits (-90.0 20.0)
  end
  begin
     id 6 
     name rhipjoint
     direction -0.554414 -0.743062 0.374812   
     length 2.4371  
     axis 0 0 0  XYZ 
  end
  begin
     id 7 
     name rfemur
     direction -0.34202 -0.939693 0   
     length 7.47254   
     axis 0 0 -20   XYZ
    dof rx ry rz
    limits (-160.0 20.0)
           (-70.0 70.0)
           (-70.0 60.0)
  end
  begin
     id 8 
     name rtibia
     direction -0.34202 -0.939693 0   
     length 7.65855   
     axis 0 0 -20   XYZ
    dof rx
    limits (-10.0 170.0)
 end
 begin
     id 9 
     name rfoot
     direction -0.133779 -0.367555 0.92033   
     length 2.43006  
     axis -90 -7.62852e-016 -20   XYZ
    dof rx rz
    limits (-45.0 90.0)
           (-20.0 70.0)
  end
  begin
     id 10 
     name rtoes
     direction -1.53563e-011 -4.21889e-011 1   
     length 1.19625   
     axis -90 -7.62852e-016 -20   XYZ
    dof rx
    limits (-90.0 20.0)
  end
  begin
     id 11 
     name lowerback
     direction 0.0249066 0.998043 -0.0573585   
     length 2.08485   
     axis 0 0 0   XYZ
    dof rx ry rz
    limits (-20.0 45.0)
           (-30.0 30.0)
           (-30.0 30.0)
  end
  begin
     id 12 
     name upperback
     direction 0.0237884 0.999673 0.00943178   
     length 2.08515   
     axis 0 0 0   XYZ
    dof rx ry rz
    limits (-20.0 45.0)
           (-30.0 30.0)
           (-30.0 30.0)
  end
  begin
     id 13 
     name thorax
     direction 0.0106671 0.999301 0.0358174   
     length 2.09037   
     axis 0 0 0   XYZ
    dof rx ry rz
    limits (-20.0 45.0)
           (-30.0 30.0)
           (-30.0 30.0)
  end
  begin
     id 14 
     name lowerneck
     direction -0.0580016 0.987052 0.149546   
     length 1.84454   
     axis 0 0 0   XYZ
    dof rx ry rz
    limits (-20.0 45.0)
           (-30.0 30.0)
           (-30.0 30.0)
  end
  begin
     id 15 
     name upperneck
     direction 0.079456 0.981963 -0.171567   
     length 1.88141   
     axis 0 0 0   XYZ
    dof rx ry rz
    limits (-20.0 45.0)
           (-30.0 30.0)
           (-30.0 30.0)
  end
  begin
     id 16
     name head
     direction 0.0262167 0.9967 -0.0768276  
     length 1.89541  
     axis 0 0 0   XYZ
    dof rx ry rz
    limits (-20.0 45.0)
           (-30.0 30.0)
           (-30.0 30.0)
  end
  begin
     id 17 
     name lclavicle
     direction 0.946135 0.322134 -0.0325326  
     length 3.949  
     axis 0 0 0   XYZ
    dof ry rz
    limits (-20.0 10.0)
           (0.0 20.0)
  end
  begin
     id 18 
     name lhumerus
     direction 1 -4.48964e-011 1.94005e-028   
     length 5.10995   
     axis 180 -30 -90   XYZ
    dof rx ry rz
    limits (-60.0 90.0)
           (-90.0 90.0)
           (-90.0 90.0)
  end
  begin
     id 19
     name lradius
     direction 1 -4.48976e-011 2.87852e-027   
     length 3.21207   
     axis 180 -30 -90   XYZ
    dof rx
    limits (-10.0 170.0)
  end
  begin
     id 20
     name lwrist
     direction 1 -4.48963e-011 1.9975e-027   
     length 1.60604   
     axis 2.96054e-016 90 90   XYZ
    dof ry
    limits (-180.0 0.0)
 end
  begin
     id 21 
     name lhand
     direction 1 -4.48919e-011 4.00227e-027   
     length 0.63349   
     axis -2.5488e-015 90 90   XYZ
    dof rx rz
    limits (-90.0 90.0)
           (-45.0 45.0)
  end
  begin
     id 22 
     name lfingers
     direction 1 -4.49037e-011 7.9652e-027   
     length 0.510736   
     axis -5.0975e-015 90 90   XYZ
    dof rx
    limits (0.0 90.0)
  end
  begin
     id 23
     name lthumb
     direction 0.707107 -6.34922e-011 0.707107   
     length 0.733318   
     axis -90 45 -4.48553e-014   XYZ
    dof rx rz
    limits (-45.0 45.0)
           (-45.0 45.0)
  end
  begin
     id 24 
     name rclavicle
     direction -0.940085 0.328911 -0.0897654   
     length 3.93848  
     axis 0 0 0   XYZ 
    dof ry rz
    limits (-10.0 20.0)
           (-20.0 0.0)
  end
  begin
     id 25 
     name rhumerus
     direction -1 -4.48958e-011 3.02044e-027  
     length 5.25109   
     axis 180 30 90   XYZ
    dof rx ry rz
    limits (-90.0 60.0)
           (-90.0 90.0)
           (-90.0 90.0)
  end
  begin
     id 26 
     name rradius
     direction -1 -4.4897e-011 9.78352e-028   
     length 3.28364   
     axis 180 30 90   XYZ
    dof rx
    limits (-10.0 170.0)
  end
  begin
     id 27 
     name rwrist
     direction -1 -4.48943e-011 1.99918e-027   
     length 1.64182   
     axis 2.96054e-016 -90 -90   XYZ
    dof ry
    limits (-180.0 0.0)
  end
  begin
     id 28
     name rhand
     direction -1 -4.49024e-011 3.98478e-027   
     length 0.599745   
     axis -2.5488e-015 -90 -90   XYZ
    dof rx rz
    limits (-90.0 90.0)
           (-45.0 45.0)
  end
  begin
     id 29
     name rfingers
     direction -1 -4.48914e-011 8.00621e-027   
     length 0.48353   
     axis -5.0975e-015 -90 -90   XYZ
    dof rx
    limits (0.0 90.0)
  end
  begin
     id 30
     name rthumb
     direction -0.707107 -6.34992e-011 0.707107   
     length 0.694255   
     axis -90 -45 4.48553e-014   XYZ
    dof rx rz
    limits (-45.0 45.0)
           (-45.0 45.0)
  end
:hierarchy
  begin
    root lhipjoint rhipjoint lowerback
    lhipjoint lfemur
    lfemur ltibia
    ltibia lfoot
    lfoot ltoes
    rhipjoint rfemur
    rfemur rtibia
    rtibia rfoot
    rfoot rtoes
    lowerback upperback
    upperback thorax
    thorax lowerneck lclavicle rclavicle
    lowerneck upperneck
    upperneck head
    lclavicle lhumerus
    lhumerus lradius
    lradius lwrist
    lwrist lhand lthumb
    lhand lfingers
    rclavicle rhumerus
    rhumerus rradius
    rradius rwrist
    rwrist rhand rthumb
    rhand rfingers
  end

#!OML:ASF E:\CV Data\Top Level 1\Subject 1\Session 1\player.ASF
:FULLY-SPECIFIED
:DEGREES
531
root 4.94746 18.7533 7.85246 -0.615782 -3.3485 -6.6978
lowerback 13.8462 0.87296 4.0591
upperback 2.86654 1.89279 2.98714
thorax -4.70433 0.890656 0.515092
lowerneck -13.8275 -6.96195 -13.2876
upperneck 20.4361 -9.18973 11.2093
head 9.91847 -4.16132 4.93488
rclavicle -2.28602e-014 -1.68967e-014
rhumerus -50.7835 12.5434 -91.7514
rradius 54.8358
rwrist -27.1468
rhand -26.1954 -1.65692
rfingers 7.12502
rthumb 0.357037 -31.6364
lclavicle -2.28602e-014 -1.68967e-014
lhumerus -50.8837 -3.54705 91.5189
lradius 46.3663
lwrist 16.3864
lhand -22.2533 6.74966
lfingers 7.12502
lthumb 4.16413 36.6887
rfemur -30.1272 3.7838 21.7958
rtibia 20.7283
rfoot 23.0391 -7.67204
rtoes 11.537
lfemur -25.988 -2.18183 -8.13762
ltibia 16.472
lfoot 20.2086 -2.51111
ltoes -10.1819
532
root 4.92433 18.4638 8.14176 -1.46107 -3.39479 -6.82875
lowerback 13.9763 0.903724 3.97124
upperback 3.0417 1.91874 2.96601
thorax -4.59223 0.907434 0.53672
lowerneck -13.5638 -6.95525 -13.3122
upperneck 20.5546 -9.23896 11.2891
head 9.92251 -4.18714 4.96902
rclavicle -3.8763e-015 2.56432e-014
rhumerus -50.8719 12.8243 -91.9691
rradius 55.0976
rwrist -27.3215
rhand -26.0246 -1.81414
rfingers 7.12502
rthumb 0.522025 -31.7932
lclavicle -3.8763e-015 2.56432e-014
lhumerus -50.9302 -3.43552 91.2065
lradius 46.3482
lwrist 16.101
lhand -22.2926 6.74836
lfingers 7.12502
lthumb 4.1262 36.6881
rfemur -30.0673 3.27374 22.3676
rtibia 21.9591
rfoot 23.8868 -7.08058
rtoes 11.725
lfemur -26.4142 -1.12151 -8.11473
ltibia 18.4971
lfoot 20.6714 -3.71195
ltoes -10.1192
533
root 4.9023 18.1572 8.43271 -2.40326 -3.4948 -6.96794
lowerback 14.1879 0.94673 3.91022
upperback 3.22364 1.96901 2.94215
thorax -4.51599 0.935132 0.534743
lowerneck -13.3127 -6.9518 -13.3466
upperneck 20.6834 -9.29155 11.3746
head 9.9339 -4.21443 5.00648
rclavicle 3.42904e-015 -3.97569e-016
rhumerus -50.9227 13.0801 -92.1812
rradius 55.2585
rwrist -27.4738
rhand -25.8673 -1.94717
rfingers 7.12502
rthumb 0.673932 -31.9259
lclavicle 3.42904e-015 -3.97569e-016
lhumerus -50.985 -3.33375 90.8926
lradius 46.2936
lwrist 15.742
lhand -22.2863 6.73248
lfingers 7.12502
lthumb 4.13227 36.6722
rfemur -30.0745 2.67423 23.0138
rtibia 23.8087
rfoot 24.3112 -6.37295
rtoes 11.6349
lfemur -26.8832 -0.0118039 -8.09683
ltibia 21.0516
lfoot 20.828 -5.10703
ltoes -9.89107
534
root 4.88208 17.8335 8.72485 -3.43457 -3.65585 -7.11167
lowerback 14.4778 0.999561 3.8839
upperback 3.40594 2.04151 2.91469
thorax -4.47999 0.972632 0.50395
lowerneck -13.0811 -6.94693 -13.3876
upperneck 20.8232 -9.33866 11.4562
head 9.95229 -4.23958 5.04443
rclavicle -1.19519e-014 -3.77691e-015
rhumerus -50.9426 13.3056 -92.3803
rradius 55.3208
rwrist -27.5584
rhand -25.6695 -2.09073
rfingers 7.12502
rthumb 0.864959 -32.0687
lclavicle -1.19519e-014 -3.77691e-015
lhumerus -51.0688 -3.22447 90.5741
lradius 46.2247
lwrist 15.3486
lhand -22.2369 6.69146
lfingers 7.12502
lthumb 4.17998 36.6302
rfemur -30.1208 1.97991 23.7303
rtibia 26.2929
rfoot 23.6439 -5.34184
rtoes 11.0395
lfemur -27.3914 1.13203 -8.07741
ltibia 24.1637
lfoot 20.0306 -6.80465
ltoes -9.55721
535
root 4.86394 17.4989 9.01477 -4.55368 -3.87555 -7.25681
lowerback 14.8575 1.05957 3.90001
upperback 3.58572 2.13465 2.88022
thorax -4.49262 1.01897 0.435973
lowerneck -12.849 -6.93794 -13.431
upperneck 20.9417 -9.37863 11.5404
head 9.96231 -4.26156 5.0845
rclavicle 6.28657e-015 1.6201e-014
rhumerus -50.933 13.4697 -92.5628
rradius 55.2881
rwrist -27.5297
rhand -25.3945 -2.20903
rfingers 7.12502
rthumb 1.1306 -32.1858
lclavicle 6.28657e-015 1.6201e-014
lhumerus -51.1872 -3.10457 90.2507
lradius 46.1454
lwrist 14.9627
lhand -22.1696 6.59191
lfingers 7.12502
lthumb 4.24496 36.5294
rfemur -30.1761 1.29113 24.4574
rtibia 29.396
rfoot 21.6101 -3.9035
rtoes 9.59321
lfemur -27.9177 2.2992 -8.04885
ltibia 27.8597
lfoot 18.0282 -8.74
ltoes -9.5431
536
root 4.84835 17.1591 9.2985 -5.74755 -4.14083 -7.39969
lowerback 15.3216 1.11765 3.96675
upperback 3.75958 2.23794 2.84013
thorax -4.55376 1.06891 0.32912
lowerneck -12.5605 -6.91536 -13.491
upperneck 20.9747 -9.39737 11.6336
head 9.92947 -4.2764 5.13307
rclavicle 3.8763e-015 -3.90115e-014
rhumerus -50.8908 13.5618 -92.7299
rradius 55.1629
rwrist -27.3999
rhand -25.0661 -2.31267
rfingers 7.12502
rthumb 1.44772 -32.2875
lclavicle 3.8763e-015 -3.90115e-014
lhumerus -51.3433 -2.92532 89.9119
lradius 46.0618
lwrist 14.5826
lhand -22.0695 6.40944
lfingers 7.12502
lthumb 4.34162 36.3449
rfemur -30.2202 0.711697 25.1388
rtibia 33.0855
rfoot 18.0265 -2.34776
rtoes 7.50998
lfemur -28.4507 3.42465 -7.98944
ltibia 32.1218
lfoot 14.6736 -10.5711
ltoes -9.79807
537
root 4.83487 16.8172 9.57306 -7.01264 -4.42257 -7.52965
lowerback 15.8825 1.16231 4.07336
upperback 3.93439 2.33563 2.79362
thorax -4.66276 1.11479 0.190837
lowerneck -12.2454 -6.88174 -13.5483
upperneck 20.935 -9.39358 11.7087
head 9.86145 -4.28355 5.17675
rclavicle -1.12608e-014 -7.33018e-015
rhumerus -50.7717 13.5311 -92.8656
rradius 54.9186
rwrist -27.126
rhand -24.669 -2.3589
rfingers 7.12502
rthumb 1.83128 -32.3308
lclavicle -1.12608e-014 -7.33018e-015
lhumerus -51.4959 -2.63854 89.5412
lradius 45.942
lwrist 14.1993
lhand -21.9349 6.10952
lfingers 7.12502
lthumb 4.47159 36.0423
rfemur -30.2435 0.343551 25.712
rtibia 37.272
rfoot 13.0725 -1.09857
rtoes 5.2582
lfemur -28.9891 4.45485 -7.89453
ltibia 36.8873
lfoot 10.1174 -11.8596
ltoes -10.2594
538
root 4.82247 16.4764 9.83664 -8.32163 -4.6939 -7.59175
lowerback 16.525 1.19332 4.14597
upperback 4.1162 2.41433 2.73321
thorax -4.80761 1.15084 0.0575306
lowerneck -11.9737 -6.84289 -13.5934
upperneck 20.8816 -9.36887 11.7448
head 9.79121 -4.28244 5.20585
rclavicle 2.90536e-014 1.14798e-014
rhumerus -50.505 13.33 -92.9401
rradius 54.5107
rwrist -26.6772
rhand -24.1854 -2.3254
rfingers 7.12502
rthumb 2.29832 -32.2928
lclavicle 2.90536e-014 1.14798e-014
lhumerus -51.5806 -2.20275 89.1294
lradius 45.7363
lwrist 13.8152
lhand -21.7704 5.67609
lfingers 7.12502
lthumb 4.63044 35.6055
rfemur -30.2894 0.245231 26.1028
rtibia 41.8349
rfoot 7.37151 -0.556479
rtoes 3.32853
lfemur -29.5495 5.33677 -7.81117
ltibia 42.018
lfoot 4.96241 -12.2443
ltoes -10.7606
539
root 4.80974 16.1406 10.0893 -9.48065 -4.94446 -7.60144
lowerback 17.0815 1.21862 4.17266
upperback 4.27327 2.47353 2.66318
thorax -4.93278 1.17787 -0.0555289
lowerneck -11.8445 -6.81347 -13.623
upperneck 20.8946 -9.33828 11.7369
head 9.76772 -4.27657 5.21553
rclavicle 5.17958e-014 -2.78299e-015
rhumerus -50.0137 12.921 -92.9335
rradius 53.8813
rwrist -26.0696
rhand -23.6418 -2.16438
rfingers 7.12502
rthumb 2.82328 -32.1254
lclavicle 5.17958e-014 -2.78299e-015
lhumerus -51.5018 -1.60115 88.6612
lradius 45.3652
lwrist 13.4456
lhand -21.5823 5.14263
lfingers 7.12502
lthumb 4.81212 35.068
rfemur -30.5531 0.434299 26.3558
rtibia 46.5648
rfoot 1.66636 -0.859638
rtoes 2.04497
lfemur -30.2863 6.05857 -7.73286
ltibia 47.2724
lfoot -0.0861537 -11.6703
ltoes -11.0772
540
root 4.79496 15.8138 10.3309 -10.4009 -5.1485 -7.56251
lowerback 17.4937 1.23842 4.12043
upperback 4.40342 2.50384 2.58794
thorax -5.01221 1.19218 -0.121075
lowerneck -11.9797 -6.80715 -13.6226
upperneck 21.0583 -9.31287 11.6713
head 9.84412 -4.26697 5.19608
rclavicle 4.94974e-014 5.22804e-014
rhumerus -49.2155 12.3057 -92.8239
rradius 52.9489
rwrist -25.3495
rhand -23.0779 -1.81722
rfingers 7.12502
rthumb 3.36783 -31.7704
lclavicle 4.94974e-014 5.22804e-014
lhumerus -51.1461 -0.813933 88.117
lradius 44.7131
lwrist 13.1088
lhand -21.3766 4.62218
lfingers 7.12502
lthumb 5.01077 34.5429
rfemur -31.1245 0.82924 26.5181
rtibia 51.2851
rfoot -3.42246 -1.86926
rtoes 1.52603
lfemur -31.2464 6.63889 -7.67939
ltibia 52.4167
lfoot -4.55498 -10.4249
ltoes -10.9238
